<svg width="110" height="36" viewBox="0 0 110 36" fill="none" xmlns="http://www.w3.org/2000/svg">
<path d="M38.0259 28.0365C38.0259 26.58 38.2762 25.1689 38.7769 23.8034C39.3004 22.4379 40.0286 21.2317 40.9617 20.1848C41.8948 19.1151 43.0214 18.2617 44.3414 17.6244C45.6842 16.9644 47.1635 16.6344 48.7793 16.6344C49.5759 16.6344 50.3155 16.7482 50.9983 16.9758C51.6811 17.2034 52.2728 17.5334 52.7735 17.9658C53.2969 18.3982 53.6952 18.9331 53.9683 19.5703C54.2642 20.1848 54.4121 20.8903 54.4121 21.6868C54.4121 22.9613 54.1276 24.0424 53.5586 24.9299C52.9897 25.8175 52.1931 26.5458 51.169 27.1148C50.1676 27.661 48.9728 28.0593 47.5845 28.3096C46.1962 28.5599 44.6828 28.6851 43.0442 28.6851C43.2035 29.641 43.5448 30.3237 44.0683 30.7334C44.6145 31.1203 45.468 31.3137 46.6286 31.3137C47.3569 31.3137 48.0966 31.2568 48.8476 31.1431C49.5986 31.0065 50.3042 30.8131 50.9642 30.5627L51.3397 34.5568C50.7024 34.8072 49.8831 35.0348 48.8817 35.2396C47.9031 35.4444 46.8335 35.5468 45.6728 35.5468C44.2617 35.5468 43.0669 35.3534 42.0883 34.9665C41.1324 34.5568 40.3473 34.0106 39.7328 33.3279C39.1411 32.6451 38.7086 31.8486 38.4355 30.9382C38.1624 30.0279 38.0259 29.0606 38.0259 28.0365ZM47.96 20.6627C46.7993 20.6627 45.7752 21.0837 44.8876 21.9258C44.0228 22.7451 43.4538 23.8375 43.1807 25.2031C44.5917 25.1575 45.7297 25.0437 46.5945 24.8617C47.4593 24.6568 48.1307 24.4179 48.6086 24.1448C49.0866 23.8717 49.4052 23.5758 49.5645 23.2572C49.7238 22.9386 49.8035 22.6199 49.8035 22.3013C49.8035 21.2089 49.189 20.6627 47.96 20.6627ZM63.2292 35.5468C62.023 35.5468 60.9761 35.3648 60.0885 35.0006C59.2009 34.6365 58.4612 34.1244 57.8695 33.4644C57.3005 32.8044 56.8681 32.0306 56.5723 31.1431C56.2764 30.2327 56.1285 29.2313 56.1285 28.1389C56.1285 26.7734 56.3447 25.4079 56.7771 24.0424C57.2323 22.6768 57.8923 21.4479 58.7571 20.3555C59.6219 19.2631 60.6802 18.3755 61.9319 17.6927C63.1836 16.9872 64.6174 16.6344 66.2333 16.6344C67.4167 16.6344 68.4523 16.8165 69.3398 17.1806C70.2502 17.5448 70.9898 18.0568 71.5588 18.7168C72.1505 19.3768 72.5943 20.162 72.8902 21.0724C73.1861 21.9599 73.334 22.9499 73.334 24.0424C73.334 25.4079 73.1178 26.7734 72.6854 28.1389C72.253 29.5044 71.6157 30.7334 70.7736 31.8258C69.9316 32.9182 68.8733 33.8172 67.5988 34.5227C66.3471 35.2055 64.8905 35.5468 63.2292 35.5468ZM65.7554 20.9358C65.0043 20.9358 64.3443 21.152 63.7754 21.5844C63.2064 22.0168 62.7285 22.5631 62.3416 23.2231C61.9547 23.8831 61.6588 24.6113 61.454 25.4079C61.2719 26.1817 61.1809 26.9213 61.1809 27.6268C61.1809 28.7875 61.363 29.6865 61.7271 30.3237C62.0912 30.9382 62.7512 31.2455 63.7071 31.2455C64.4581 31.2455 65.1181 31.0293 65.6871 30.5968C66.256 30.1644 66.734 29.6182 67.1209 28.9582C67.5078 28.2982 67.7923 27.5813 67.9743 26.8075C68.1792 26.011 68.2816 25.2599 68.2816 24.5544C68.2816 23.3937 68.0995 22.5062 67.7354 21.8917C67.3712 21.2544 66.7112 20.9358 65.7554 20.9358ZM82.1487 35.4103C80.5328 35.4103 79.2583 35.2055 78.3252 34.7958C77.4149 34.3634 76.7549 33.7831 76.3452 33.0548C75.9583 32.3265 75.7649 31.4958 75.7649 30.5627C75.7876 29.6068 75.9242 28.5941 76.1745 27.5244L80.5101 9.39719L85.8014 8.57788L81.0563 28.2413C80.9652 28.651 80.9083 29.0265 80.8856 29.3679C80.8856 29.7093 80.9539 30.0165 81.0904 30.2896C81.227 30.5399 81.4545 30.7448 81.7732 30.9041C82.1145 31.0634 82.5811 31.1658 83.1728 31.2113L82.1487 35.4103ZM90.5272 35.0689H85.4748L89.742 17.1124H94.8286L90.5272 35.0689ZM92.9851 14.9275C92.2796 14.9275 91.6423 14.7227 91.0734 14.3131C90.5044 13.8806 90.2199 13.232 90.2199 12.3672C90.2199 11.8893 90.311 11.4455 90.493 11.0358C90.6979 10.6034 90.9596 10.2393 91.2782 9.9434C91.5968 9.62478 91.961 9.37443 92.3706 9.19236C92.803 9.01029 93.2582 8.91926 93.7361 8.91926C94.4417 8.91926 95.0789 9.13547 95.6479 9.56788C96.2168 9.97754 96.5013 10.6148 96.5013 11.4796C96.5013 11.9575 96.3989 12.4127 96.1941 12.8451C96.012 13.2548 95.7617 13.6189 95.443 13.9375C95.1244 14.2334 94.7489 14.4724 94.3165 14.6544C93.9068 14.8365 93.463 14.9275 92.9851 14.9275ZM100.025 12.6403L105.316 11.821L104.019 17.1124H109.686L108.662 21.2772H103.029L101.527 27.5586C101.39 28.082 101.299 28.5713 101.254 29.0265C101.231 29.4817 101.288 29.88 101.424 30.2213C101.584 30.54 101.845 30.7903 102.209 30.9724C102.574 31.1544 103.074 31.2455 103.712 31.2455C104.258 31.2455 104.781 31.2 105.282 31.1089C105.805 30.9951 106.329 30.8472 106.852 30.6651L107.228 34.5568C106.545 34.8072 105.805 35.0234 105.009 35.2055C104.212 35.3875 103.268 35.4786 102.175 35.4786C100.605 35.4786 99.3874 35.251 98.5226 34.7958C97.6577 34.3179 97.0433 33.6806 96.6791 32.8841C96.315 32.0648 96.1557 31.1317 96.2012 30.0848C96.2467 29.0379 96.406 27.9341 96.6791 26.7734L100.025 12.6403Z" fill="white"/>
<path d="M27.5504 34.7225L22.288 28.0945L27.5504 23.8273L37.9438 35.0009L27.5504 34.7225Z" fill="white"/>
<path d="M17.8266 11.3424L7.56824 11.0676L18.1232 24.5212L24.0808 19.3343L17.8266 11.3424Z" fill="white"/>
<path d="M11.3161 35.3584L0 35.0552L51.5905 0.863281L11.3161 35.3584Z" fill="white"/>
</svg>
