<svg width="111" height="36" viewBox="0 0 111 36" fill="none" xmlns="http://www.w3.org/2000/svg">
<path d="M38.1904 28.0801C38.1904 26.6172 38.4419 25.2001 38.9447 23.8287C39.4704 22.4572 40.2019 21.2458 41.139 20.1944C42.0761 19.1201 43.2076 18.2629 44.5333 17.6229C45.8819 16.9601 47.3676 16.6287 48.9904 16.6287C49.7904 16.6287 50.5333 16.7429 51.219 16.9715C51.9047 17.2001 52.499 17.5315 53.0019 17.9658C53.5276 18.4001 53.9276 18.9372 54.2019 19.5772C54.499 20.1944 54.6476 20.9029 54.6476 21.7029C54.6476 22.9829 54.3619 24.0687 53.7904 24.9601C53.219 25.8515 52.419 26.5829 51.3904 27.1544C50.3847 27.7029 49.1847 28.1029 47.7904 28.3544C46.3961 28.6058 44.8761 28.7315 43.2304 28.7315C43.3904 29.6915 43.7333 30.3772 44.259 30.7887C44.8076 31.1772 45.6647 31.3715 46.8304 31.3715C47.5619 31.3715 48.3047 31.3144 49.059 31.2001C49.8133 31.0629 50.5219 30.8687 51.1847 30.6172L51.5619 34.6287C50.9219 34.8801 50.099 35.1087 49.0933 35.3144C48.1104 35.5201 47.0361 35.6229 45.8704 35.6229C44.4533 35.6229 43.2533 35.4287 42.2704 35.0401C41.3104 34.6287 40.5219 34.0801 39.9047 33.3944C39.3104 32.7087 38.8761 31.9087 38.6019 30.9944C38.3276 30.0801 38.1904 29.1087 38.1904 28.0801ZM48.1676 20.6744C47.0019 20.6744 45.9733 21.0972 45.0819 21.9429C44.2133 22.7658 43.6419 23.8629 43.3676 25.2344C44.7847 25.1887 45.9276 25.0744 46.7961 24.8915C47.6647 24.6858 48.339 24.4458 48.819 24.1715C49.299 23.8972 49.619 23.6001 49.779 23.2801C49.939 22.9601 50.019 22.6401 50.019 22.3201C50.019 21.2229 49.4019 20.6744 48.1676 20.6744ZM63.5028 35.6229C62.2914 35.6229 61.24 35.4401 60.3485 35.0744C59.4571 34.7087 58.7142 34.1944 58.12 33.5315C57.5485 32.8687 57.1142 32.0915 56.8171 31.2001C56.52 30.2858 56.3714 29.2801 56.3714 28.1829C56.3714 26.8115 56.5885 25.4401 57.0228 24.0687C57.48 22.6972 58.1428 21.4629 59.0114 20.3658C59.88 19.2687 60.9428 18.3772 62.2 17.6915C63.4571 16.9829 64.8971 16.6287 66.52 16.6287C67.7085 16.6287 68.7485 16.8115 69.64 17.1772C70.5542 17.5429 71.2971 18.0572 71.8685 18.7201C72.4628 19.3829 72.9085 20.1715 73.2057 21.0858C73.5028 21.9772 73.6514 22.9715 73.6514 24.0687C73.6514 25.4401 73.4342 26.8115 73 28.1829C72.5657 29.5544 71.9257 30.7887 71.08 31.8858C70.2342 32.9829 69.1714 33.8858 67.8914 34.5944C66.6342 35.2801 65.1714 35.6229 63.5028 35.6229ZM66.04 20.9487C65.2857 20.9487 64.6228 21.1658 64.0514 21.6001C63.48 22.0344 63 22.5829 62.6114 23.2458C62.2228 23.9087 61.9257 24.6401 61.72 25.4401C61.5371 26.2172 61.4457 26.9601 61.4457 27.6687C61.4457 28.8344 61.6285 29.7372 61.9942 30.3772C62.36 30.9944 63.0228 31.3029 63.9828 31.3029C64.7371 31.3029 65.4 31.0858 65.9714 30.6515C66.5428 30.2172 67.0228 29.6687 67.4114 29.0058C67.8 28.3429 68.0857 27.6229 68.2685 26.8458C68.4742 26.0458 68.5771 25.2915 68.5771 24.5829C68.5771 23.4172 68.3942 22.5258 68.0285 21.9087C67.6628 21.2687 67 20.9487 66.04 20.9487ZM82.5042 35.4858C80.8814 35.4858 79.6014 35.2801 78.6642 34.8687C77.75 34.4344 77.0871 33.8515 76.6757 33.1201C76.2871 32.3887 76.0928 31.5544 76.0928 30.6172C76.1157 29.6572 76.2528 28.6401 76.5042 27.5658L80.8585 9.36009L86.1728 8.53723L81.4071 28.2858C81.3157 28.6972 81.2585 29.0744 81.2357 29.4172C81.2357 29.7601 81.3042 30.0687 81.4414 30.3429C81.5785 30.5944 81.8071 30.8001 82.1271 30.9601C82.47 31.1201 82.9385 31.2229 83.5328 31.2687L82.5042 35.4858ZM90.919 35.1429H85.8447L90.1304 17.1087H95.239L90.919 35.1429ZM93.3876 14.9144C92.679 14.9144 92.039 14.7087 91.4676 14.2972C90.8961 13.8629 90.6104 13.2115 90.6104 12.3429C90.6104 11.8629 90.7019 11.4172 90.8847 11.0058C91.0904 10.5715 91.3533 10.2058 91.6733 9.90866C91.9933 9.58866 92.359 9.33723 92.7704 9.15437C93.2047 8.97152 93.6619 8.88009 94.1419 8.88009C94.8504 8.88009 95.4904 9.09723 96.0619 9.53152C96.6333 9.94295 96.919 10.5829 96.919 11.4515C96.919 11.9315 96.8161 12.3887 96.6104 12.8229C96.4276 13.2344 96.1761 13.6001 95.8561 13.9201C95.5361 14.2172 95.159 14.4572 94.7247 14.6401C94.3133 14.8229 93.8676 14.9144 93.3876 14.9144ZM100.458 12.6172L105.772 11.7944L104.469 17.1087H110.16L109.132 21.2915H103.475L101.966 27.6001C101.829 28.1258 101.738 28.6172 101.692 29.0744C101.669 29.5315 101.726 29.9315 101.863 30.2744C102.023 30.5944 102.286 30.8458 102.652 31.0287C103.018 31.2115 103.52 31.3029 104.16 31.3029C104.709 31.3029 105.235 31.2572 105.738 31.1658C106.263 31.0515 106.789 30.9029 107.315 30.7201L107.692 34.6287C107.006 34.8801 106.263 35.0972 105.463 35.2801C104.663 35.4629 103.715 35.5544 102.618 35.5544C101.04 35.5544 99.8176 35.3258 98.949 34.8687C98.0804 34.3887 97.4633 33.7487 97.0976 32.9487C96.7319 32.1258 96.5719 31.1887 96.6176 30.1372C96.6633 29.0858 96.8233 27.9772 97.0976 26.8115L100.458 12.6172Z" fill="black"/>
<path d="M27.6696 34.7949L22.3844 28.1383L27.6696 23.8525L38.108 35.0745L27.6696 34.7949Z" fill="#19A9FE"/>
<path d="M27.6696 34.7949L22.3844 28.1383L27.6696 23.8525L38.108 35.0745L27.6696 34.7949Z" fill="url(#paint0_linear)"/>
<path d="M17.9038 11.3137L7.60107 11.0377L18.2017 24.5496L24.1851 19.3401L17.9038 11.3137Z" fill="#5818F5"/>
<path d="M11.365 35.4336L0 35.1291L51.8138 0.789185L11.365 35.4336Z" fill="#C4C4C4"/>
<path d="M11.365 35.4336L0 35.1291L51.8138 0.789185L11.365 35.4336Z" fill="url(#paint1_linear)"/>
<defs>
<linearGradient id="paint0_linear" x1="29.2802" y1="21.2423" x2="28.9163" y2="34.8283" gradientUnits="userSpaceOnUse">
<stop stop-color="#5818F5"/>
<stop offset="1" stop-color="#5818F5" stop-opacity="0"/>
</linearGradient>
<linearGradient id="paint1_linear" x1="48.5719" y1="3.0566" x2="23.0131" y2="43.9504" gradientUnits="userSpaceOnUse">
<stop stop-color="#A838FF"/>
<stop offset="1" stop-color="#5818F5"/>
</linearGradient>
</defs>
</svg>
